<?xml version="1.0" encoding="UTF-8" standalone="no"?>
<!DOCTYPE svg PUBLIC "-//W3C//DTD SVG 1.1//EN"
 "http://www.w3.org/Graphics/SVG/1.1/DTD/svg11.dtd">
<!-- Generated by graphviz version 2.48.0 (0)
 -->
<!-- Pages: 1 -->
<svg width="334pt" height="305pt"
 viewBox="0.00 0.00 333.89 305.00" xmlns="http://www.w3.org/2000/svg" xmlns:xlink="http://www.w3.org/1999/xlink">
<g id="graph0" class="graph" transform="scale(1 1) rotate(0) translate(4 301)">
<polygon fill="white" stroke="transparent" points="-4,4 -4,-301 329.89,-301 329.89,4 -4,4"/>
<!-- Staking pool -->
<g id="node1" class="node">
<title>Staking pool</title>
<ellipse fill="none" stroke="black" cx="68.89" cy="-279" rx="68.79" ry="18"/>
<text text-anchor="middle" x="68.89" y="-275.3" font-family="Times,serif" font-size="14.00">Staking pool</text>
</g>
<!-- Stakes -->
<g id="node2" class="node">
<title>Stakes</title>
<ellipse fill="none" stroke="black" cx="94.89" cy="-192" rx="42.49" ry="18"/>
<text text-anchor="middle" x="94.89" y="-188.3" font-family="Times,serif" font-size="14.00">Stakes</text>
</g>
<!-- Staking pool&#45;&gt;Stakes -->
<g id="edge1" class="edge">
<title>Staking pool&#45;&gt;Stakes</title>
<path fill="none" stroke="black" d="M66.77,-260.91C66.15,-251.05 66.4,-238.55 69.89,-228 71.09,-224.39 72.81,-220.82 74.78,-217.43"/>
<polygon fill="black" stroke="black" points="77.8,-219.21 80.45,-208.95 71.98,-215.32 77.8,-219.21"/>
<text text-anchor="middle" x="92.39" y="-231.8" font-family="Times,serif" font-size="14.00">tracks</text>
</g>
<!-- Proposals -->
<g id="node3" class="node">
<title>Proposals</title>
<ellipse fill="none" stroke="black" cx="94.89" cy="-105" rx="55.79" ry="18"/>
<text text-anchor="middle" x="94.89" y="-101.3" font-family="Times,serif" font-size="14.00">Proposals</text>
</g>
<!-- Stakes&#45;&gt;Proposals -->
<g id="edge2" class="edge">
<title>Stakes&#45;&gt;Proposals</title>
<path fill="none" stroke="black" d="M94.89,-173.8C94.89,-162.16 94.89,-146.55 94.89,-133.24"/>
<polygon fill="black" stroke="black" points="98.39,-133.18 94.89,-123.18 91.39,-133.18 98.39,-133.18"/>
<text text-anchor="middle" x="131.89" y="-144.8" font-family="Times,serif" font-size="14.00">are put on</text>
</g>
<!-- Effects -->
<g id="node4" class="node">
<title>Effects</title>
<ellipse fill="none" stroke="black" cx="158.89" cy="-18" rx="42.79" ry="18"/>
<text text-anchor="middle" x="158.89" y="-14.3" font-family="Times,serif" font-size="14.00">Effects</text>
</g>
<!-- Proposals&#45;&gt;Effects -->
<g id="edge3" class="edge">
<title>Proposals&#45;&gt;Effects</title>
<path fill="none" stroke="black" d="M107.54,-87.21C116.89,-74.79 129.78,-57.67 140.3,-43.7"/>
<polygon fill="black" stroke="black" points="143.27,-45.56 146.49,-35.47 137.68,-41.35 143.27,-45.56"/>
<text text-anchor="middle" x="147.89" y="-57.8" font-family="Times,serif" font-size="14.00">have</text>
</g>
<!-- Governor -->
<g id="node5" class="node">
<title>Governor</title>
<ellipse fill="none" stroke="black" cx="222.89" cy="-105" rx="53.89" ry="18"/>
<text text-anchor="middle" x="222.89" y="-101.3" font-family="Times,serif" font-size="14.00">Governor</text>
</g>
<!-- Governor&#45;&gt;Effects -->
<g id="edge4" class="edge">
<title>Governor&#45;&gt;Effects</title>
<path fill="none" stroke="black" d="M210.25,-87.21C200.9,-74.79 188.01,-57.67 177.49,-43.7"/>
<polygon fill="black" stroke="black" points="180.11,-41.35 171.29,-35.47 174.51,-45.56 180.11,-41.35"/>
<text text-anchor="middle" x="246.89" y="-57.8" font-family="Times,serif" font-size="14.00">issues GATs to</text>
</g>
<!-- Users -->
<g id="node6" class="node">
<title>Users</title>
<ellipse fill="none" stroke="black" cx="212.89" cy="-279" rx="38.19" ry="18"/>
<text text-anchor="middle" x="212.89" y="-275.3" font-family="Times,serif" font-size="14.00">Users</text>
</g>
<!-- Users&#45;&gt;Stakes -->
<g id="edge5" class="edge">
<title>Users&#45;&gt;Stakes</title>
<path fill="none" stroke="black" d="M185.75,-266.08C173.12,-259.97 158.21,-251.95 145.89,-243 135.34,-235.33 124.85,-225.52 116.15,-216.63"/>
<polygon fill="black" stroke="black" points="118.44,-213.96 109.01,-209.12 113.37,-218.78 118.44,-213.96"/>
<text text-anchor="middle" x="181.89" y="-231.8" font-family="Times,serif" font-size="14.00">lock GT in</text>
</g>
<!-- Treasury -->
<g id="node7" class="node">
<title>Treasury</title>
<ellipse fill="none" stroke="black" cx="231.89" cy="-192" rx="51.99" ry="18"/>
<text text-anchor="middle" x="231.89" y="-188.3" font-family="Times,serif" font-size="14.00">Treasury</text>
</g>
<!-- Users&#45;&gt;Treasury -->
<g id="edge6" class="edge">
<title>Users&#45;&gt;Treasury</title>
<path fill="none" stroke="black" d="M216.74,-260.8C219.34,-249.16 222.83,-233.55 225.81,-220.24"/>
<polygon fill="black" stroke="black" points="229.29,-220.7 228.05,-210.18 222.46,-219.17 229.29,-220.7"/>
<text text-anchor="middle" x="274.89" y="-231.8" font-family="Times,serif" font-size="14.00">claim GT from</text>
</g>
</g>
</svg>
