<?xml version="1.0" encoding="UTF-8" standalone="no"?>
<!DOCTYPE svg PUBLIC "-//W3C//DTD SVG 1.1//EN"
 "http://www.w3.org/Graphics/SVG/1.1/DTD/svg11.dtd">
<!-- Generated by graphviz version 2.49.3 (0)
 -->
<!-- Pages: 1 -->
<svg width="327pt" height="392pt"
 viewBox="0.00 0.00 327.00 392.00" xmlns="http://www.w3.org/2000/svg" xmlns:xlink="http://www.w3.org/1999/xlink">
<g id="graph0" class="graph" transform="scale(1 1) rotate(0) translate(4 388)">
<polygon fill="white" stroke="transparent" points="-4,4 -4,-388 323,-388 323,4 -4,4"/>
<!-- Stakes -->
<g id="node1" class="node">
<title>Stakes</title>
<ellipse fill="none" stroke="black" cx="186" cy="-279" rx="42.49" ry="18"/>
<text text-anchor="middle" x="186" y="-275.3" font-family="Times,serif" font-size="14.00">Stakes</text>
</g>
<!-- Proposals -->
<g id="node2" class="node">
<title>Proposals</title>
<ellipse fill="none" stroke="black" cx="186" cy="-192" rx="55.79" ry="18"/>
<text text-anchor="middle" x="186" y="-188.3" font-family="Times,serif" font-size="14.00">Proposals</text>
</g>
<!-- Stakes&#45;&gt;Proposals -->
<g id="edge1" class="edge">
<title>Stakes&#45;&gt;Proposals</title>
<path fill="none" stroke="black" d="M186,-260.8C186,-249.16 186,-233.55 186,-220.24"/>
<polygon fill="black" stroke="black" points="189.5,-220.18 186,-210.18 182.5,-220.18 189.5,-220.18"/>
<text text-anchor="middle" x="252.5" y="-231.8" font-family="Times,serif" font-size="14.00">create and vote on</text>
</g>
<!-- Effects -->
<g id="node3" class="node">
<title>Effects</title>
<ellipse fill="none" stroke="black" cx="121" cy="-105" rx="42.79" ry="18"/>
<text text-anchor="middle" x="121" y="-101.3" font-family="Times,serif" font-size="14.00">Effects</text>
</g>
<!-- Proposals&#45;&gt;Effects -->
<g id="edge2" class="edge">
<title>Proposals&#45;&gt;Effects</title>
<path fill="none" stroke="black" d="M180.25,-173.75C176.36,-163.6 170.55,-150.86 163,-141 159.3,-136.17 154.82,-131.57 150.19,-127.38"/>
<polygon fill="black" stroke="black" points="152.24,-124.54 142.35,-120.76 147.73,-129.88 152.24,-124.54"/>
<text text-anchor="middle" x="188" y="-144.8" font-family="Times,serif" font-size="14.00">have</text>
</g>
<!-- Treasury -->
<g id="node7" class="node">
<title>Treasury</title>
<ellipse fill="none" stroke="black" cx="52" cy="-18" rx="51.99" ry="18"/>
<text text-anchor="middle" x="52" y="-14.3" font-family="Times,serif" font-size="14.00">Treasury</text>
</g>
<!-- Effects&#45;&gt;Treasury -->
<g id="edge6" class="edge">
<title>Effects&#45;&gt;Treasury</title>
<path fill="none" stroke="black" d="M86.61,-94.14C74.21,-88.77 61.44,-80.75 54,-69 49.73,-62.26 48.26,-53.93 48.14,-46.01"/>
<polygon fill="black" stroke="black" points="51.64,-46.17 48.63,-36.01 44.65,-45.83 51.64,-46.17"/>
<text text-anchor="middle" x="111.5" y="-57.8" font-family="Times,serif" font-size="14.00">release GT from</text>
</g>
<!-- Components -->
<g id="node8" class="node">
<title>Components</title>
<ellipse fill="none" stroke="black" cx="191" cy="-18" rx="68.79" ry="18"/>
<text text-anchor="middle" x="191" y="-14.3" font-family="Times,serif" font-size="14.00">Components</text>
</g>
<!-- Effects&#45;&gt;Components -->
<g id="edge7" class="edge">
<title>Effects&#45;&gt;Components</title>
<path fill="none" stroke="black" d="M145.54,-89.8C153.79,-84.13 162.53,-77.03 169,-69 174.58,-62.07 179.02,-53.5 182.41,-45.42"/>
<polygon fill="black" stroke="black" points="185.73,-46.55 186.04,-35.96 179.19,-44.05 185.73,-46.55"/>
<text text-anchor="middle" x="194" y="-57.8" font-family="Times,serif" font-size="14.00">alter</text>
</g>
<!-- Admin -->
<g id="node4" class="node">
<title>Admin</title>
<ellipse fill="none" stroke="black" cx="58" cy="-279" rx="40.09" ry="18"/>
<text text-anchor="middle" x="58" y="-275.3" font-family="Times,serif" font-size="14.00">Admin</text>
</g>
<!-- Governor -->
<g id="node5" class="node">
<title>Governor</title>
<ellipse fill="none" stroke="black" cx="58" cy="-192" rx="53.89" ry="18"/>
<text text-anchor="middle" x="58" y="-188.3" font-family="Times,serif" font-size="14.00">Governor</text>
</g>
<!-- Admin&#45;&gt;Governor -->
<g id="edge3" class="edge">
<title>Admin&#45;&gt;Governor</title>
<path fill="none" stroke="black" d="M58,-260.8C58,-249.16 58,-233.55 58,-220.24"/>
<polygon fill="black" stroke="black" points="61.5,-220.18 58,-210.18 54.5,-220.18 61.5,-220.18"/>
<text text-anchor="middle" x="93" y="-231.8" font-family="Times,serif" font-size="14.00">initializes</text>
</g>
<!-- Governor&#45;&gt;Effects -->
<g id="edge4" class="edge">
<title>Governor&#45;&gt;Effects</title>
<path fill="none" stroke="black" d="M54.28,-173.63C53.04,-163.43 53.21,-150.69 59,-141 63.84,-132.9 71.31,-126.51 79.41,-121.54"/>
<polygon fill="black" stroke="black" points="81.23,-124.54 88.35,-116.69 77.89,-118.38 81.23,-124.54"/>
<text text-anchor="middle" x="111" y="-144.8" font-family="Times,serif" font-size="14.00">issues GATs to</text>
</g>
<!-- Users -->
<g id="node6" class="node">
<title>Users</title>
<ellipse fill="none" stroke="black" cx="186" cy="-366" rx="38.19" ry="18"/>
<text text-anchor="middle" x="186" y="-362.3" font-family="Times,serif" font-size="14.00">Users</text>
</g>
<!-- Users&#45;&gt;Stakes -->
<g id="edge5" class="edge">
<title>Users&#45;&gt;Stakes</title>
<path fill="none" stroke="black" d="M186,-347.8C186,-336.16 186,-320.55 186,-307.24"/>
<polygon fill="black" stroke="black" points="189.5,-307.18 186,-297.18 182.5,-307.18 189.5,-307.18"/>
<text text-anchor="middle" x="222" y="-318.8" font-family="Times,serif" font-size="14.00">lock GT in</text>
</g>
</g>
</svg>
