<?xml version="1.0" encoding="UTF-8" standalone="no"?>
<!DOCTYPE svg PUBLIC "-//W3C//DTD SVG 1.1//EN"
 "http://www.w3.org/Graphics/SVG/1.1/DTD/svg11.dtd">
<!-- Generated by graphviz version 2.49.3 (0)
 -->
<!-- Pages: 1 -->
<svg width="262pt" height="392pt"
 viewBox="0.00 0.00 261.95 392.00" xmlns="http://www.w3.org/2000/svg" xmlns:xlink="http://www.w3.org/1999/xlink">
<g id="graph0" class="graph" transform="scale(1 1) rotate(0) translate(4 388)">
<polygon fill="white" stroke="transparent" points="-4,4 -4,-388 257.95,-388 257.95,4 -4,4"/>
<!-- Stakes -->
<g id="node1" class="node">
<title>Stakes</title>
<ellipse fill="none" stroke="black" cx="181.95" cy="-279" rx="42.49" ry="18"/>
<text text-anchor="middle" x="181.95" y="-275.3" font-family="Times,serif" font-size="14.00">Stakes</text>
</g>
<!-- Proposals -->
<g id="node2" class="node">
<title>Proposals</title>
<ellipse fill="none" stroke="black" cx="181.95" cy="-192" rx="55.79" ry="18"/>
<text text-anchor="middle" x="181.95" y="-188.3" font-family="Times,serif" font-size="14.00">Proposals</text>
</g>
<!-- Stakes&#45;&gt;Proposals -->
<g id="edge1" class="edge">
<title>Stakes&#45;&gt;Proposals</title>
<path fill="none" stroke="black" d="M181.95,-260.8C181.95,-249.16 181.95,-233.55 181.95,-220.24"/>
<polygon fill="black" stroke="black" points="185.45,-220.18 181.95,-210.18 178.45,-220.18 185.45,-220.18"/>
<text text-anchor="middle" x="208.45" y="-231.8" font-family="Times,serif" font-size="14.00">vote on</text>
</g>
<!-- Effects -->
<g id="node3" class="node">
<title>Effects</title>
<ellipse fill="none" stroke="black" cx="116.95" cy="-105" rx="42.79" ry="18"/>
<text text-anchor="middle" x="116.95" y="-101.3" font-family="Times,serif" font-size="14.00">Effects</text>
</g>
<!-- Proposals&#45;&gt;Effects -->
<g id="edge2" class="edge">
<title>Proposals&#45;&gt;Effects</title>
<path fill="none" stroke="black" d="M176.2,-173.75C172.31,-163.6 166.5,-150.86 158.95,-141 155.25,-136.17 150.77,-131.57 146.14,-127.38"/>
<polygon fill="black" stroke="black" points="148.19,-124.54 138.3,-120.76 143.68,-129.88 148.19,-124.54"/>
<text text-anchor="middle" x="183.95" y="-144.8" font-family="Times,serif" font-size="14.00">have</text>
</g>
<!-- Treasury -->
<g id="node6" class="node">
<title>Treasury</title>
<ellipse fill="none" stroke="black" cx="116.95" cy="-18" rx="51.99" ry="18"/>
<text text-anchor="middle" x="116.95" y="-14.3" font-family="Times,serif" font-size="14.00">Treasury</text>
</g>
<!-- Effects&#45;&gt;Treasury -->
<g id="edge5" class="edge">
<title>Effects&#45;&gt;Treasury</title>
<path fill="none" stroke="black" d="M116.95,-86.8C116.95,-75.16 116.95,-59.55 116.95,-46.24"/>
<polygon fill="black" stroke="black" points="120.45,-46.18 116.95,-36.18 113.45,-46.18 120.45,-46.18"/>
<text text-anchor="middle" x="174.45" y="-57.8" font-family="Times,serif" font-size="14.00">release GT from</text>
</g>
<!-- Governor -->
<g id="node4" class="node">
<title>Governor</title>
<ellipse fill="none" stroke="black" cx="53.95" cy="-192" rx="53.89" ry="18"/>
<text text-anchor="middle" x="53.95" y="-188.3" font-family="Times,serif" font-size="14.00">Governor</text>
</g>
<!-- Governor&#45;&gt;Effects -->
<g id="edge3" class="edge">
<title>Governor&#45;&gt;Effects</title>
<path fill="none" stroke="black" d="M50.23,-173.63C48.99,-163.43 49.16,-150.69 54.95,-141 59.79,-132.9 67.26,-126.51 75.36,-121.54"/>
<polygon fill="black" stroke="black" points="77.18,-124.54 84.3,-116.69 73.84,-118.38 77.18,-124.54"/>
<text text-anchor="middle" x="106.95" y="-144.8" font-family="Times,serif" font-size="14.00">issues GATs to</text>
</g>
<!-- Users -->
<g id="node5" class="node">
<title>Users</title>
<ellipse fill="none" stroke="black" cx="181.95" cy="-366" rx="38.19" ry="18"/>
<text text-anchor="middle" x="181.95" y="-362.3" font-family="Times,serif" font-size="14.00">Users</text>
</g>
<!-- Users&#45;&gt;Stakes -->
<g id="edge4" class="edge">
<title>Users&#45;&gt;Stakes</title>
<path fill="none" stroke="black" d="M181.95,-347.8C181.95,-336.16 181.95,-320.55 181.95,-307.24"/>
<polygon fill="black" stroke="black" points="185.45,-307.18 181.95,-297.18 178.45,-307.18 185.45,-307.18"/>
<text text-anchor="middle" x="217.95" y="-318.8" font-family="Times,serif" font-size="14.00">lock GT in</text>
</g>
</g>
</svg>
