<?xml version="1.0" encoding="UTF-8" standalone="no"?>
<!DOCTYPE svg PUBLIC "-//W3C//DTD SVG 1.1//EN"
 "http://www.w3.org/Graphics/SVG/1.1/DTD/svg11.dtd">
<!-- Generated by graphviz version 2.49.3 (0)
 -->
<!-- Pages: 1 -->
<svg width="742pt" height="44pt"
 viewBox="0.00 0.00 742.06 44.00" xmlns="http://www.w3.org/2000/svg" xmlns:xlink="http://www.w3.org/1999/xlink">
<g id="graph0" class="graph" transform="scale(1 1) rotate(0) translate(4 40)">
<polygon fill="white" stroke="transparent" points="-4,4 -4,-40 738.06,-40 738.06,4 -4,4"/>
<!-- Users -->
<g id="node1" class="node">
<title>Users</title>
<ellipse fill="none" stroke="black" cx="38.35" cy="-18" rx="38.19" ry="18"/>
<text text-anchor="middle" x="38.35" y="-14.3" font-family="Times,serif" font-size="14.00">Users</text>
</g>
<!-- Proposals -->
<g id="node2" class="node">
<title>Proposals</title>
<ellipse fill="none" stroke="black" cx="221.59" cy="-18" rx="55.79" ry="18"/>
<text text-anchor="middle" x="221.59" y="-14.3" font-family="Times,serif" font-size="14.00">Proposals</text>
</g>
<!-- Users&#45;&gt;Proposals -->
<g id="edge1" class="edge">
<title>Users&#45;&gt;Proposals</title>
<path fill="none" stroke="black" d="M76.9,-18C99.51,-18 128.92,-18 155.24,-18"/>
<polygon fill="black" stroke="black" points="155.54,-21.5 165.54,-18 155.54,-14.5 155.54,-21.5"/>
<text text-anchor="middle" x="121.19" y="-21.8" font-family="Times,serif" font-size="14.00">vote on</text>
</g>
<!-- Effects -->
<g id="node3" class="node">
<title>Effects</title>
<ellipse fill="none" stroke="black" cx="483.38" cy="-18" rx="42.79" ry="18"/>
<text text-anchor="middle" x="483.38" y="-14.3" font-family="Times,serif" font-size="14.00">Effects</text>
</g>
<!-- Proposals&#45;&gt;Effects -->
<g id="edge2" class="edge">
<title>Proposals&#45;&gt;Effects</title>
<path fill="none" stroke="black" d="M277.68,-18C322.64,-18 385.72,-18 429.94,-18"/>
<polygon fill="black" stroke="black" points="430.19,-21.5 440.19,-18 430.19,-14.5 430.19,-21.5"/>
<text text-anchor="middle" x="358.98" y="-21.8" font-family="Times,serif" font-size="14.00">have one or many</text>
</g>
<!-- Components -->
<g id="node4" class="node">
<title>Components</title>
<ellipse fill="none" stroke="black" cx="665.17" cy="-18" rx="68.79" ry="18"/>
<text text-anchor="middle" x="665.17" y="-14.3" font-family="Times,serif" font-size="14.00">Components</text>
</g>
<!-- Effects&#45;&gt;Components -->
<g id="edge3" class="edge">
<title>Effects&#45;&gt;Components</title>
<path fill="none" stroke="black" d="M526.53,-18C544.29,-18 565.55,-18 585.99,-18"/>
<polygon fill="black" stroke="black" points="586.25,-21.5 596.25,-18 586.25,-14.5 586.25,-21.5"/>
<text text-anchor="middle" x="561.28" y="-21.8" font-family="Times,serif" font-size="14.00">alter</text>
</g>
</g>
</svg>
